<svg width="48" height="48" viewBox="0 0 48 48" fill="none" xmlns="http://www.w3.org/2000/svg">
<path d="M24 47C30.6274 47 36 46.1046 36 45C36 43.8954 30.6274 43 24 43C17.3726 43 12 43.8954 12 45C12 46.1046 17.3726 47 24 47Z" fill="#F99F10"/>
<path d="M25.971 43.029C25.328 43.011 24.673 43 24 43C17.373 43 12 43.895 12 45C12 45.992 16.342 46.814 22.029 46.971C22.029 46.971 22.594 45.813 23.877 45.123C25.16 44.433 25.971 43.029 25.971 43.029Z" fill="#F9C900"/>
<path d="M41 18C41 27.389 32.5 38.333 24 44C15.5 38.333 7 27.389 7 18C7 8.611 14.611 1 24 1C33.389 1 41 8.611 41 18Z" fill="#5A99CC"/>
<path d="M37.344 7.489C34.231 3.542 29.417 1 24 1C14.611 1 7 8.611 7 18C7 23.093 9.355 28.98 13 33C13 33 16.152 26.129 25.272 19.562C34.392 12.995 37.344 7.489 37.344 7.489Z" fill="#8BCBEF"/>
<path d="M41.347 16.297C41.053 11.065 38.075 6.03095 33.648 3.12195C25.342 -2.64505 12.998 0.409953 8.25004 9.34895C1.61204 21.47 11.186 34.979 20.512 42.548C17.685 42.632 14.763 42.555 12.079 43.696C11.66 43.971 11.357 44.12 11.184 44.721C10.908 45.669 11.927 46.359 12.641 46.618C16.428 47.895 20.124 47.903 24 47.97C27.877 47.903 31.571 47.896 35.359 46.619C36.072 46.361 37.095 45.67 36.816 44.722C36.032 42.436 29.543 42.653 27.423 42.55C33.984 36.984 39.691 29.688 41.212 21.02C41.368 20.006 41.421 18.635 41.07 17.944C41.316 17.747 41.306 16.673 41.347 16.297ZM34.662 44.969C31.36 45.919 27.496 45.952 24 46C20.506 45.952 16.638 45.919 13.338 44.968C15.981 44 18.963 43.851 21.775 43.495C24.137 45.317 23.858 45.326 26.223 43.495C26.337 43.518 26.457 43.537 26.588 43.548C29.289 43.845 32.134 44.055 34.662 44.969ZM40.227 20.851C38.189 29.953 31.465 37.586 24.018 42.889C15.923 36.914 7.52104 27.136 8.06404 16.54C8.95004 4.66895 22.871 -2.09105 32.839 4.36695C36.636 6.70995 39.386 10.71 40.237 15.151C40.54 16.546 40.656 17.742 40.926 17.965C40.929 17.967 40.932 17.963 40.935 17.965C40.843 18.069 40.749 18.33 40.66 18.673C40.513 19.337 40.385 20.095 40.227 20.851Z" fill="black"/>
<circle cx="24" cy="17" r="6" fill="white"/>
</svg>
